<svg xmlns="http://www.w3.org/2000/svg" xmlns:xlink="http://www.w3.org/1999/xlink" width="202.047" height="202.048" viewBox="0 0 202.047 202.048">
  <defs>
    <filter id="Path_2320" x="0" y="0" width="202.047" height="202.048" filterUnits="userSpaceOnUse">
      <feOffset input="SourceAlpha"/>
      <feGaussianBlur stdDeviation="5" result="blur"/>
      <feFlood flood-color="#1f1f1f" flood-opacity="0.302"/>
      <feComposite operator="in" in2="blur"/>
      <feComposite in="SourceGraphic"/>
    </filter>
  </defs>
  <g id="Group_571" data-name="Group 571" transform="translate(-2211.102 331.939)">
    <g transform="matrix(1, 0, 0, 1, 2211.1, -331.94)" filter="url(#Path_2320)">
      <path id="Path_2320-2" data-name="Path 2320" d="M2227.6-230.916a84.52,84.52,0,0,1,84.524-84.523,84.54,84.54,0,0,1,82.5,66.094,84.317,84.317,0,0,1,2.02,18.429,84.527,84.527,0,0,1-84.523,84.525,84.133,84.133,0,0,1-45.308-13.161A84.461,84.461,0,0,1,2227.6-230.916Z" transform="translate(-2211.1 331.94)" fill="#ff8a45" stroke="#fff" stroke-width="3"/>
    </g>
    <path id="Path_2321" data-name="Path 2321" d="M2271.181-262.974a1.111,1.111,0,0,0-1.5-.348c-.633.258-1.01.832-.831,1.278a1.121,1.121,0,0,0,1.5.357C2270.992-261.944,2271.359-262.518,2271.181-262.974Zm1.03-2.784c-.218-.049-.4.019-.456.348a.778.778,0,0,0,.4.752,3.3,3.3,0,0,1,.376.267,2.548,2.548,0,0,1,.871,2.427,2.889,2.889,0,0,1-1.218,2.138c-.931.605-1.981.011-2.971.011a.89.89,0,0,0-.563.178.433.433,0,0,0-.169.425c.049.208.268.327.466.4a4.057,4.057,0,0,0,.891.228,4.031,4.031,0,0,0,4.6-2.883C2274.756-263.1,2274.032-265.391,2272.21-265.758Zm0,0c-.218-.049-.4.019-.456.348a.778.778,0,0,0,.4.752,3.3,3.3,0,0,1,.376.267,2.548,2.548,0,0,1,.871,2.427,2.889,2.889,0,0,1-1.218,2.138c-.931.605-1.981.011-2.971.011a.89.89,0,0,0-.563.178.433.433,0,0,0-.169.425c.049.208.268.327.466.4a4.057,4.057,0,0,0,.891.228,4.031,4.031,0,0,0,4.6-2.883C2274.756-263.1,2274.032-265.391,2272.21-265.758Zm-1.861,4.071c.643-.258,1.01-.832.832-1.287a1.111,1.111,0,0,0-1.5-.348c-.633.258-1.01.832-.831,1.278A1.121,1.121,0,0,0,2270.349-261.687Zm118.689,2.436-3.2-1.566s-13.469-9.159-23.332-11.389c-.138-.028-.266-.058-.4-.078,0,0,9.576-.249,13.7.821,0,0-8.289-20.8-42.952-25.749,0,0-15.9-.623-18.945,0,0,0,8.062-4.961,10.874-4.961-2.337-.258-32.234-3.021-57.665,13.548,0,0-14.439,8.665-14.687,26.4,0,0-21.618,11.477-16.834,30.372s25.173,14.113,25.173,14.113a6.929,6.929,0,0,1-.5-1.536s-3.673-1.395-4.11-4.486,1.792-8.832,10.893-14.835,14.955-6.912,14.955-6.912-14.806-1.772-16.955-9.863c0,0,8.665,8.17,26.986,7.309a147.859,147.859,0,0,0-17.211,8.615c-8.617,5.12-19.054,11.279-14.31,16.122a7.448,7.448,0,0,1,2.8-3.5,14.279,14.279,0,0,1,1.328-.832.01.01,0,0,0,.01-.011c.406-.445,13.606-14.755,45.456-14.667,32.343.079,62.826,15.419,65.312,24.2-.526-.515-17.608-16.835-58.667-17.559,0,0,28.68,6.557,43.781,27.927l7.656,12.845c-.861-1.04-28.582-34.562-57.261-35.7l-6.555-.12s20.915,12.25,19.925,37.256-10.893,29.046-10.893,29.046,7.169-11.924,3.712-38.949-37.513-35.345-52.466-24.283c6.288-3.5,21.132-6.744,28.7,6.209,8.17,13.994-1.853,26.868-11.14,35.524a194.259,194.259,0,0,1-21,16.47,84.134,84.134,0,0,0,45.308,13.161,84.527,84.527,0,0,0,84.523-84.525A84.288,84.288,0,0,0,2389.038-259.25ZM2258.4-253.437c-.466.8-1.833.87-3.059.168s-1.853-1.931-1.4-2.733,1.831-.872,3.059-.169S2258.851-254.23,2258.4-253.437Zm26.957-18.8c-10.923,1.921-9.318,9.992-8.824,10.179.466.178,4.11-1.515,4.546-1.712-.941.456-2.812,4-2.812,4-2.9,6.19-12.311,2.853-13.8,1.208s-5.545-3.713-5.545-3.713h1.486c3.158.058,4.981-1.328,14.081-8.389a18.209,18.209,0,0,1,18.015-2.969Zm-13.142,6.476c-.218-.049-.4.019-.456.348a.778.778,0,0,0,.4.752,3.3,3.3,0,0,1,.376.267,2.548,2.548,0,0,1,.871,2.427,2.889,2.889,0,0,1-1.218,2.138c-.931.605-1.981.011-2.971.011a.89.89,0,0,0-.563.178.433.433,0,0,0-.169.425c.049.208.268.327.466.4a4.057,4.057,0,0,0,.891.228,4.031,4.031,0,0,0,4.6-2.883C2274.756-263.1,2274.032-265.391,2272.21-265.758Zm-1.861,4.071c.643-.258,1.01-.832.832-1.287a1.111,1.111,0,0,0-1.5-.348c-.633.258-1.01.832-.831,1.278A1.121,1.121,0,0,0,2270.349-261.687Zm.832-1.287a1.111,1.111,0,0,0-1.5-.348c-.633.258-1.01.832-.831,1.278a1.121,1.121,0,0,0,1.5.357C2270.992-261.944,2271.359-262.518,2271.181-262.974Zm1.03-2.784c-.218-.049-.4.019-.456.348a.778.778,0,0,0,.4.752,3.3,3.3,0,0,1,.376.267,2.548,2.548,0,0,1,.871,2.427,2.889,2.889,0,0,1-1.218,2.138c-.931.605-1.981.011-2.971.011a.89.89,0,0,0-.563.178.433.433,0,0,0-.169.425c.049.208.268.327.466.4a4.057,4.057,0,0,0,.891.228,4.031,4.031,0,0,0,4.6-2.883C2274.756-263.1,2274.032-265.391,2272.21-265.758Zm0,0c-.218-.049-.4.019-.456.348a.778.778,0,0,0,.4.752,3.3,3.3,0,0,1,.376.267,2.548,2.548,0,0,1,.871,2.427,2.889,2.889,0,0,1-1.218,2.138c-.931.605-1.981.011-2.971.011a.89.89,0,0,0-.563.178.433.433,0,0,0-.169.425c.049.208.268.327.466.4a4.057,4.057,0,0,0,.891.228,4.031,4.031,0,0,0,4.6-2.883C2274.756-263.1,2274.032-265.391,2272.21-265.758Zm-1.03,2.784a1.111,1.111,0,0,0-1.5-.348c-.633.258-1.01.832-.831,1.278a1.121,1.121,0,0,0,1.5.357C2270.992-261.944,2271.359-262.518,2271.181-262.974Z" transform="translate(5.591 9.905)" fill="#fff"/>
    <path id="Path_2322" data-name="Path 2322" d="M2254.155-278.973c-.179-.447.2-1.02.832-1.278a1.111,1.111,0,0,1,1.5.348c.178.455-.189,1.029-.832,1.287A1.121,1.121,0,0,1,2254.155-278.973Z" transform="translate(20.29 26.834)" fill="#1365a8"/>
    <path id="Path_2323" data-name="Path 2323" d="M2259.889-277.393a4.032,4.032,0,0,1-4.6,2.883,4.066,4.066,0,0,1-.891-.228c-.2-.071-.417-.189-.466-.4a.433.433,0,0,1,.17-.425.888.888,0,0,1,.563-.178c.991,0,2.041.595,2.971-.011a2.889,2.889,0,0,0,1.219-2.138,2.548,2.548,0,0,0-.87-2.427,3.442,3.442,0,0,0-.376-.267.778.778,0,0,1-.4-.752c.06-.328.238-.4.455-.348C2259.482-281.314,2260.206-279.026,2259.889-277.393Z" transform="translate(20.142 25.828)" fill="#1365a8"/>
    <path id="Path_2324" data-name="Path 2324" d="M2249.521-257.521a9.093,9.093,0,0,0-.337,2.357A6.61,6.61,0,0,1,2249.521-257.521Z" transform="translate(16.515 44.331)" fill="#1365a8"/>
    <g id="Group_566" data-name="Group 566" transform="translate(2274.058 -255.867)">
      <path id="Path_2325" data-name="Path 2325" d="M2259.889-277.393a4.032,4.032,0,0,1-4.6,2.883,4.066,4.066,0,0,1-.891-.228c-.2-.071-.417-.189-.466-.4a.433.433,0,0,1,.17-.425.888.888,0,0,1,.563-.178c.991,0,2.041.595,2.971-.011a2.889,2.889,0,0,0,1.219-2.138,2.548,2.548,0,0,0-.87-2.427,3.442,3.442,0,0,0-.376-.267.778.778,0,0,1-.4-.752c.06-.328.238-.4.455-.348C2259.482-281.314,2260.206-279.026,2259.889-277.393Z" transform="translate(-2253.917 281.695)" fill="#fff"/>
      <path id="Path_2326" data-name="Path 2326" d="M2255.65-278.616a1.121,1.121,0,0,1-1.5-.357c-.179-.447.2-1.02.832-1.278a1.111,1.111,0,0,1,1.5.348C2256.66-279.447,2256.293-278.874,2255.65-278.616Z" transform="translate(-2253.768 282.701)" fill="#fff"/>
    </g>
  </g>
</svg>
