<svg id="Group_540" data-name="Group 540" xmlns="http://www.w3.org/2000/svg" width="86.277" height="86.277" viewBox="0 0 86.277 86.277">
  <g id="Group_538" data-name="Group 538">
    <g id="Group_537" data-name="Group 537">
      <path id="Path_2300" data-name="Path 2300" d="M972.791,160.552a43.139,43.139,0,1,0,43.139,43.139A43.184,43.184,0,0,0,972.791,160.552Zm0,83.009a39.859,39.859,0,1,1,39.848-39.871A39.909,39.909,0,0,1,972.791,243.561Z" transform="translate(-929.652 -160.552)" fill="#fff"/>
    </g>
  </g>
  <g id="Group_539" data-name="Group 539" transform="translate(13.622 32.147)">
    <path id="Path_2301" data-name="Path 2301" d="M936.979,179.469a9.168,9.168,0,0,1,3.489-3.424,10.254,10.254,0,0,1,10.172.246,8.394,8.394,0,0,1,3.392,4.176h-3.705a4.982,4.982,0,0,0-2.026-2.216,6.029,6.029,0,0,0-3-.73,6.572,6.572,0,0,0-3.327.838,5.834,5.834,0,0,0-2.285,2.407,8.489,8.489,0,0,0,0,7.3,5.9,5.9,0,0,0,2.285,2.421,6.49,6.49,0,0,0,3.327.852,6.005,6.005,0,0,0,3-.73,4.981,4.981,0,0,0,2.026-2.216h3.705a8.313,8.313,0,0,1-3.392,4.163,9.87,9.87,0,0,1-5.344,1.463,9.738,9.738,0,0,1-4.841-1.231,9.18,9.18,0,0,1-3.475-3.424,10.188,10.188,0,0,1,0-9.9Z" transform="translate(-935.696 -174.815)" fill="#fff"/>
    <path id="Path_2302" data-name="Path 2302" d="M955.192,193.721l-4.33-7.519h-2.353v7.519h-3.081v-18.8h6.491a8.072,8.072,0,0,1,3.665.757,5.265,5.265,0,0,1,2.245,2.029,5.517,5.517,0,0,1,.744,2.84,5.615,5.615,0,0,1-1.068,3.338,5.431,5.431,0,0,1-3.286,2.044l4.652,7.789Zm-6.683-9.98h3.41a3.579,3.579,0,0,0,2.61-.865,3.119,3.119,0,0,0,.879-2.326,3.008,3.008,0,0,0-.866-2.288,3.691,3.691,0,0,0-2.624-.823h-3.41Z" transform="translate(-923.494 -174.678)" fill="#fff"/>
    <path id="Path_2303" data-name="Path 2303" d="M972.807,174.924v18.8h-3.081V180.847l-5.734,12.874h-2.137l-5.763-12.874v12.874h-3.081v-18.8h3.327l6.6,14.74,6.572-14.74Z" transform="translate(-913.986 -174.678)" fill="#fff"/>
  </g>
</svg>
