<svg id="Group_536" data-name="Group 536" xmlns="http://www.w3.org/2000/svg" width="77.963" height="78.369" viewBox="0 0 77.963 78.369">
  <g id="Group_495" data-name="Group 495" transform="translate(49.456 16.371)">
    <g id="Group_492" data-name="Group 492" transform="translate(2.334 0)">
      <rect id="Rectangle_727" data-name="Rectangle 727" width="13.87" height="1.997" transform="translate(0 9.808) rotate(-45)" fill="#fff"/>
    </g>
    <g id="Group_494" data-name="Group 494" transform="translate(0 7.783)">
      <g id="Group_493" data-name="Group 493">
        <path id="Path_2292" data-name="Path 2292" d="M913.846,174.024l-5.771,1.546,1.546-5.771Z" transform="translate(-908.075 -169.799)" fill="#fff"/>
      </g>
    </g>
  </g>
  <g id="Group_499" data-name="Group 499" transform="translate(14.335 15.934)">
    <g id="Group_496" data-name="Group 496" transform="translate(0 0)">
      <rect id="Rectangle_728" data-name="Rectangle 728" width="1.997" height="13.871" transform="translate(0 1.412) rotate(-45)" fill="#fff"/>
    </g>
    <g id="Group_498" data-name="Group 498" transform="translate(7.783 7.784)">
      <g id="Group_497" data-name="Group 497">
        <path id="Path_2293" data-name="Path 2293" d="M895.609,169.532l1.546,5.771-5.771-1.546Z" transform="translate(-891.384 -169.532)" fill="#fff"/>
      </g>
    </g>
  </g>
  <g id="Group_503" data-name="Group 503" transform="translate(49.166 49.66)">
    <g id="Group_500" data-name="Group 500" transform="translate(2.334 2.334)">
      <rect id="Rectangle_729" data-name="Rectangle 729" width="1.997" height="13.871" transform="translate(0 1.412) rotate(-44.999)" fill="#fff"/>
    </g>
    <g id="Group_502" data-name="Group 502">
      <g id="Group_501" data-name="Group 501">
        <path id="Path_2294" data-name="Path 2294" d="M909.444,191.143l-1.546-5.771,5.771,1.546Z" transform="translate(-907.898 -185.372)" fill="#fff"/>
      </g>
    </g>
  </g>
  <g id="Group_507" data-name="Group 507" transform="translate(14.948 49.792)">
    <g id="Group_504" data-name="Group 504" transform="translate(0 2.334)">
      <rect id="Rectangle_730" data-name="Rectangle 730" width="13.871" height="1.997" transform="translate(0 9.808) rotate(-45)" fill="#fff"/>
    </g>
    <g id="Group_506" data-name="Group 506" transform="translate(7.783)">
      <g id="Group_505" data-name="Group 505">
        <path id="Path_2295" data-name="Path 2295" d="M891.758,187l5.771-1.546-1.546,5.771Z" transform="translate(-891.758 -185.453)" fill="#fff"/>
      </g>
    </g>
  </g>
  <g id="Group_527" data-name="Group 527" transform="translate(6.435 6.767)">
    <g id="Group_512" data-name="Group 512" transform="translate(29.477 46.639)">
      <g id="Group_509" data-name="Group 509" transform="translate(1.989 4.3)">
        <g id="Group_508" data-name="Group 508">
          <rect id="Rectangle_731" data-name="Rectangle 731" width="1.997" height="13.871" fill="#fff"/>
        </g>
      </g>
      <g id="Group_511" data-name="Group 511">
        <g id="Group_510" data-name="Group 510">
          <path id="Path_2296" data-name="Path 2296" d="M899.806,192.833l2.988-5.174,2.988,5.174Z" transform="translate(-899.806 -187.66)" fill="#fff"/>
        </g>
      </g>
    </g>
    <g id="Group_522" data-name="Group 522" transform="translate(0 20.206)">
      <g id="Group_513" data-name="Group 513" transform="translate(20.803)">
        <circle id="Ellipse_815" data-name="Ellipse 815" cx="11.662" cy="11.662" r="11.662" fill="#fff"/>
      </g>
      <g id="Group_517" data-name="Group 517" transform="translate(46.759 8.808)">
        <g id="Group_514" data-name="Group 514" transform="translate(4.299 1.989)">
          <rect id="Rectangle_732" data-name="Rectangle 732" width="13.871" height="1.997" fill="#fff"/>
        </g>
        <g id="Group_516" data-name="Group 516">
          <g id="Group_515" data-name="Group 515">
            <path id="Path_2297" data-name="Path 2297" d="M915.532,182.873l-5.174-2.988,5.174-2.987Z" transform="translate(-910.358 -176.898)" fill="#fff"/>
          </g>
        </g>
      </g>
      <g id="Group_521" data-name="Group 521" transform="translate(0 8.808)">
        <g id="Group_518" data-name="Group 518" transform="translate(0 1.989)">
          <rect id="Rectangle_733" data-name="Rectangle 733" width="13.871" height="1.997" fill="#fff"/>
        </g>
        <g id="Group_520" data-name="Group 520" transform="translate(12.996)">
          <g id="Group_519" data-name="Group 519">
            <path id="Path_2298" data-name="Path 2298" d="M889.743,176.9l5.174,2.987-5.174,2.988Z" transform="translate(-889.743 -176.898)" fill="#fff"/>
          </g>
        </g>
      </g>
    </g>
    <g id="Group_526" data-name="Group 526" transform="translate(29.477)">
      <g id="Group_523" data-name="Group 523" transform="translate(1.989)">
        <rect id="Rectangle_734" data-name="Rectangle 734" width="1.997" height="13.871" fill="#fff"/>
      </g>
      <g id="Group_525" data-name="Group 525" transform="translate(0 12.997)">
        <g id="Group_524" data-name="Group 524">
          <path id="Path_2299" data-name="Path 2299" d="M905.781,167.118l-2.988,5.174-2.988-5.174Z" transform="translate(-899.806 -167.118)" fill="#fff"/>
        </g>
      </g>
    </g>
  </g>
  <g id="Group_528" data-name="Group 528" transform="translate(9.295 10.518)">
    <circle id="Ellipse_816" data-name="Ellipse 816" cx="2.496" cy="2.496" r="2.496" fill="#fff"/>
  </g>
  <g id="Group_529" data-name="Group 529" transform="translate(36.404)">
    <circle id="Ellipse_817" data-name="Ellipse 817" cx="2.496" cy="2.496" r="2.496" fill="#fff"/>
  </g>
  <g id="Group_530" data-name="Group 530" transform="translate(63.134 11.648)">
    <circle id="Ellipse_818" data-name="Ellipse 818" cx="2.496" cy="2.496" r="2.496" fill="#fff"/>
  </g>
  <g id="Group_531" data-name="Group 531" transform="translate(72.97 36.139)">
    <circle id="Ellipse_819" data-name="Ellipse 819" cx="2.496" cy="2.496" r="2.496" fill="#fff"/>
  </g>
  <g id="Group_532" data-name="Group 532" transform="translate(62.28 62.891)">
    <circle id="Ellipse_820" data-name="Ellipse 820" cx="2.496" cy="2.496" r="2.496" fill="#fff"/>
  </g>
  <g id="Group_533" data-name="Group 533" transform="translate(36.404 73.376)">
    <circle id="Ellipse_821" data-name="Ellipse 821" cx="2.496" cy="2.496" r="2.496" fill="#fff"/>
  </g>
  <g id="Group_534" data-name="Group 534" transform="translate(10.269 62.492)">
    <circle id="Ellipse_822" data-name="Ellipse 822" cx="2.496" cy="2.496" r="2.496" fill="#fff"/>
  </g>
  <g id="Group_535" data-name="Group 535" transform="translate(0 36.273)">
    <circle id="Ellipse_823" data-name="Ellipse 823" cx="2.496" cy="2.496" r="2.496" fill="#fff"/>
  </g>
</svg>
