<svg id="Group_562" data-name="Group 562" xmlns="http://www.w3.org/2000/svg" width="59.4" height="69.018" viewBox="0 0 59.4 69.018">
  <g id="Group_558" data-name="Group 558">
    <path id="Path_2315" data-name="Path 2315" d="M1155.987,170.872c-2.3,0-4.745-.052-7.4-.156-2.2-.087-3.618-1.815-3.618-4.4l-.005-19.62,0-36.235c0-4.828,1.241-6.079,6.04-6.082l12.178-.008q15.832-.01,31.663-.05h.033a4.429,4.429,0,0,1,3.278,1.08,4.054,4.054,0,0,1,1.043,3.023l.005,37.423a4.4,4.4,0,0,1-1.151,3.265,3.48,3.48,0,0,1-2.616.9c-2.357-.087-3.551-1.65-3.551-4.646l0-33.221h-39.332v51.032l8.4,0c.775-.008,1.549-.01,2.323.039a4.029,4.029,0,0,1,2.993,1.408,2.884,2.884,0,0,1,.518,2.4c-.278,1.371-1.833,3.553-3.33,3.642C1161.085,170.8,1158.631,170.872,1155.987,170.872Zm38.894-64.867h-.029q-15.832.058-31.668.05l-12.178.008c-3.832,0-4.36.537-4.36,4.4l0,48.314,0,7.541c0,.792.2,2.644,2,2.715,5.662.224,10.329.209,14.7-.05a3.794,3.794,0,0,0,1.781-2.3,1.217,1.217,0,0,0-.2-1.04,2.408,2.408,0,0,0-1.763-.754c-.73-.047-1.469-.04-2.2-.035l-.816,0-9.278,0v-54.4h42.7l0,34.9c0,2.4.772,2.922,1.931,2.964a1.751,1.751,0,0,0,1.386-.429,2.916,2.916,0,0,0,.636-2.054l0-37.423a2.5,2.5,0,0,0-.547-1.83A2.906,2.906,0,0,0,1194.881,106.005Z" transform="translate(-1144.961 -104.323)" fill="#06c"/>
  </g>
  <g id="Group_559" data-name="Group 559" transform="translate(24.63 37.132)">
    <path id="Path_2316" data-name="Path 2316" d="M1190.484,158.285l-13.25-11.7a11.457,11.457,0,0,1-10.489,1.3,11.131,11.131,0,0,1,7.021-21.1,10.947,10.947,0,0,1,6.609,5.169,10.411,10.411,0,0,1,1.118,8.008c-.426,1.534-.19,2.251,1.092,3.341,2.678,2.277,5.248,4.582,7.966,7.018q1.587,1.423,3.208,2.868l.615.548Zm-13.1-13.813,12.933,11.421,1.711-2q-1.312-1.171-2.6-2.325c-2.71-2.429-5.271-4.725-7.934-6.989a4.327,4.327,0,0,1-1.622-5.073,8.734,8.734,0,0,0-.957-6.718,9.26,9.26,0,0,0-5.576-4.383,9.451,9.451,0,0,0-6.007,17.906c3.169,1.184,6.281.7,9.51-1.477Zm-6.7-.589a6.22,6.22,0,0,1-4.335-1.793,6.6,6.6,0,0,1-2.022-4.7,6.361,6.361,0,0,1,6.251-6.422h0a6.552,6.552,0,0,1,6.632,6.434,6.739,6.739,0,0,1-6.321,6.474C1170.824,143.881,1170.755,143.883,1170.686,143.883Zm-.067-11.229a4.69,4.69,0,0,0-4.607,4.737,4.883,4.883,0,0,0,1.509,3.487,4.537,4.537,0,0,0,3.315,1.32,5,5,0,0,0,4.695-4.8,4.87,4.87,0,0,0-4.912-4.748Z" transform="translate(-1159.603 -126.398)" fill="#06c"/>
  </g>
  <g id="Group_560" data-name="Group 560" transform="translate(13.522 14.861)">
    <path id="Path_2317" data-name="Path 2317" d="M1177.452,119h-.079c-2.456-.027-4.917-.019-7.378-.015l-3.066.005-3.016-.005c-2.4-.005-4.812-.012-7.221.013a4.046,4.046,0,0,1-2.9-.9,2.819,2.819,0,0,1-.8-2.081,2.649,2.649,0,0,1,.723-1.968,3.934,3.934,0,0,1,2.841-.895q10.451.008,20.908,0h.007a3.721,3.721,0,0,1,2.787.937,2.649,2.649,0,0,1,.695,2.034C1180.884,117.959,1179.605,119,1177.452,119Zm-4.4-1.7q2.167,0,4.336.02c1.807-.025,1.867-.844,1.886-1.26a.977.977,0,0,0-.225-.8,2.273,2.273,0,0,0-1.574-.421h-.005q-10.461.01-20.91,0a2.424,2.424,0,0,0-1.647.4.963.963,0,0,0-.235.77,1.134,1.134,0,0,0,.291.893,2.532,2.532,0,0,0,1.7.417c2.414-.025,4.828-.017,7.241-.013l3.011.005,3.065-.005Q1171.525,117.3,1173.057,117.3Z" transform="translate(-1153 -113.158)" fill="#06c"/>
  </g>
  <g id="Group_561" data-name="Group 561" transform="translate(13.522 26.168)">
    <path id="Path_2318" data-name="Path 2318" d="M1171.969,125.725h-.059c-1.906-.027-3.81-.02-5.719-.019l-2.3.005-2.25,0c-1.869,0-3.739-.008-5.606.015a3.081,3.081,0,0,1-2.235-.75,3.029,3.029,0,0,1-.8-2.232,2.846,2.846,0,0,1,.733-2.1,2.937,2.937,0,0,1,2.2-.757q8.034.005,16.057,0a2.629,2.629,0,0,1,2.876,2.962A2.709,2.709,0,0,1,1171.969,125.725Zm-3.489-1.7c1.152,0,2.3.005,3.455.022.814-.044,1.22-.34,1.248-1.253a1.287,1.287,0,0,0-.242-.952,1.376,1.376,0,0,0-.95-.276q-8.031.008-16.059,0a1.428,1.428,0,0,0-1.006.261,1.35,1.35,0,0,0-.244.908,1.459,1.459,0,0,0,.3,1.04,1.521,1.521,0,0,0,1.034.271c1.877-.025,3.76-.018,5.633-.015l2.247,0,2.291-.005Q1167.333,124.022,1168.48,124.021Z" transform="translate(-1153 -119.88)" fill="#06c"/>
  </g>
</svg>
