<svg id="Group_541" data-name="Group 541" xmlns="http://www.w3.org/2000/svg" width="67.693" height="67.701" viewBox="0 0 67.693 67.701">
  <path id="Path_2304" data-name="Path 2304" d="M989.047,192.009c.148-.361.269-.739.45-1.084A3.277,3.277,0,0,1,992.562,189c1.367,0,2.732.012,4.1-.014.2,0,.537-.171.575-.32a27.481,27.481,0,0,1,3.5-8.226c-1.059-1.045-2.111-2.075-3.152-3.115a3.421,3.421,0,0,1-.187-4.962,39.271,39.271,0,0,1,3.163-3.186,3.461,3.461,0,0,1,5.022.192c1.029,1.025,2.043,2.064,3,3.033,1.641-.783,3.18-1.582,4.773-2.255a25.521,25.521,0,0,1,3.268-1.03c.456-.123.643-.285.627-.787-.039-1.276-.016-2.554-.014-3.832a3.561,3.561,0,0,1,3.531-3.673q2.114-.067,4.23,0a3.552,3.552,0,0,1,3.545,3.656c0,1.322.005,2.645,0,3.965,0,.311.032.516.416.607a25.993,25.993,0,0,1,7.938,3.319,1.425,1.425,0,0,0,.228.084c1.016-1.02,2.036-2.052,3.067-3.077a3.487,3.487,0,0,1,5.124-.126,35.88,35.88,0,0,1,2.972,3,7.245,7.245,0,0,1,.991,1.972.672.672,0,0,1-.206.6,47.923,47.923,0,0,1-4.179,2.789c.594-.589,1.191-1.175,1.781-1.767a1.391,1.391,0,0,0,.1-2.145q-1.415-1.524-2.947-2.938a1.376,1.376,0,0,0-2.141.107c-1.433,1.431-2.86,2.864-4.229,4.234a51.38,51.38,0,0,0-4.778-2.54,54.678,54.678,0,0,0-5.715-1.785c-.434-.125-.552-.283-.546-.7.018-1.83.009-3.657.007-5.485a1.442,1.442,0,0,0-1.534-1.657q-2.013-.053-4.031,0a1.423,1.423,0,0,0-1.506,1.612q0,2.776,0,5.551c0,.283.034.523-.375.639-5.352,1.532-5.35,1.538-10.566,4.4-.128-.114-.279-.231-.413-.365q-1.965-1.959-3.926-3.924a1.338,1.338,0,0,0-2.038-.151c-1.072.979-2.1,2.009-3.083,3.079a1.334,1.334,0,0,0,.128,2.038c1.433,1.431,2.87,2.856,4.342,4.318-.215.349-.4.666-.6.972a24.19,24.19,0,0,0-3.732,9.162c-.118.662-.36.89-1.063.865-1.739-.064-3.479-.021-5.22-.021a1.445,1.445,0,0,0-1.634,1.557q-.046,1.981,0,3.963a1.446,1.446,0,0,0,1.643,1.55c1.806,0,3.613.012,5.417-.007.457-.005.7.071.792.6a25.247,25.247,0,0,0,4.122,9.917c.085.126.153.265.262.457q-1.578,1.578-3.166,3.161c-.39.39-.779.778-1.166,1.169a1.347,1.347,0,0,0-.125,2.041c.981,1.07,2.013,2.1,3.086,3.075a1.337,1.337,0,0,0,2.038-.158c1.433-1.429,2.864-2.862,4.311-4.31.911.553,1.78,1.111,2.673,1.621a23.3,23.3,0,0,0,7.471,2.7c.627.112.86.34.838,1.014-.055,1.76-.021,3.524-.018,5.286a1.428,1.428,0,0,0,1.516,1.609q2.013.053,4.031,0a1.425,1.425,0,0,0,1.525-1.6q0-2.776,0-5.551c0-.317-.028-.58.424-.662a25.914,25.914,0,0,0,10.276-4.278,3.032,3.032,0,0,1,.306-.148c1.367,1.383,2.742,2.776,4.124,4.165a1.519,1.519,0,0,0,2.533.025q1.279-1.244,2.524-2.524a1.5,1.5,0,0,0-.037-2.44c-1.4-1.4-2.812-2.787-4.2-4.165.7-1.189,1.393-2.287,2.011-3.426a24.279,24.279,0,0,0,2.387-7.032c.087-.452.272-.557.694-.552,1.83.02,3.657.009,5.485.007a1.439,1.439,0,0,0,1.655-1.534q.054-2.013,0-4.031a1.425,1.425,0,0,0-1.616-1.506c-1.586,0-3.171,0-4.757,0-.208,0-.418-.021-.8-.043,1.034-.73,1.886-1.42,2.824-1.968.986-.577,4.462.014,5.279.8a3.748,3.748,0,0,1,1.194,2.705c.027,1.365.034,2.732,0,4.1a3.563,3.563,0,0,1-3.677,3.6c-1.323.005-2.645-.014-3.965.018a.7.7,0,0,0-.545.354,27.341,27.341,0,0,1-3.5,8.19c.97.954,1.888,1.963,2.915,2.846,2.048,1.765,1.628,4.157.025,5.716-.82.8-1.627,1.612-2.431,2.428a3.614,3.614,0,0,1-5.478-.032c-.94-1.043-1.961-2.013-2.792-2.858-2.184.947-4.207,1.847-6.25,2.7a10.86,10.86,0,0,1-1.9.539c-.44.094-.609.267-.593.742.039,1.233.018,2.467.012,3.7a3.457,3.457,0,0,1-2.785,3.727,1.174,1.174,0,0,0-.223.119h-5.287a2.245,2.245,0,0,0-.29-.132,3.47,3.47,0,0,1-2.719-3.647c0-1.276-.016-2.554.009-3.83.007-.406-.135-.541-.52-.664-1.548-.489-3.106-.97-4.606-1.584-1.189-.486-2.3-1.162-3.492-1.776-1.014,1.025-2.029,2.063-3.058,3.086a3.467,3.467,0,0,1-5.022.174,40.757,40.757,0,0,1-3.159-3.187,3.431,3.431,0,0,1,.2-4.962c1.038-1.039,2.077-2.079,3.13-3.132a26.211,26.211,0,0,1-3.44-8.144c-.093-.4-.331-.392-.625-.392-1.365,0-2.73,0-4.1,0a2.868,2.868,0,0,1-2.4-1.027,14.718,14.718,0,0,1-1.109-1.983Z" transform="translate(-989.047 -160.792)" fill="#fff"/>
  <path id="Path_2305" data-name="Path 2305" d="M1029.179,189.987a14.874,14.874,0,0,1-12.805,11.353,15.037,15.037,0,1,1,9.9-24.45l-1.812,1.29a1.989,1.989,0,0,0-.251-.454c-3.649-3.794-8.073-5.174-13.118-3.707a12.275,12.275,0,0,0-9.128,10.121,12.908,12.908,0,0,0,24.149,8.242,2.613,2.613,0,0,1,.68-.772c.717-.545,1.468-1.048,2.209-1.564A.814.814,0,0,1,1029.179,189.987Z" transform="translate(-980.813 -152.539)" fill="#fff"/>
  <path id="Path_2306" data-name="Path 2306" d="M1042.674,173.063a6.154,6.154,0,0,1-.742.749q-5.7,4.06-11.42,8.1-8.7,6.161-17.406,12.326c-.783.554-.783.552-1.335-.21l-6.861-9.461c-.611-.842-.571-1.109.265-1.721.409-.3.817-.6,1.228-.893.676-.484.965-.44,1.472.246q2.064,2.787,4.117,5.579c.831,1.13,1.49,1.321,2.693.577s2.328-1.584,3.478-2.4q10.729-7.587,21.453-15.181c.956-.678,1.123-.65,1.792.292.306.429.616.858.91,1.3A7.5,7.5,0,0,1,1042.674,173.063Z" transform="translate(-977.004 -153.372)" fill="#fff"/>
</svg>
