<svg id="Group_383" data-name="Group 383" xmlns="http://www.w3.org/2000/svg" width="60.682" height="42.646" viewBox="0 0 60.682 42.646">
  <g id="Group_357" data-name="Group 357" transform="translate(0 19.869)">
    <g id="Group_356" data-name="Group 356">
      <path id="Path_2240" data-name="Path 2240" d="M613.554,192.815l3.84-11.288a6.356,6.356,0,0,0,.5-1.684c0-.5-.532-.754-1.581-.754h-1.538v-1.081h6.875v1.081h-.733c-.711,0-1.177.1-1.357.311a6.041,6.041,0,0,0-.786,1.674l-6.8,19.71h-1.018l-8.669-21.695h-1.879v-1.081h10.08v1.081h-2.4Z" transform="translate(-600.408 -178.008)" fill="#fff"/>
      <g id="Group_354" data-name="Group 354" transform="translate(25.454)">
        <path id="Path_2241" data-name="Path 2241" d="M621.739,179.089v20.2h3.035v1.079H613.334v-1.079h2.928v-20.2h-2.928v-1.081h11.439v1.081Z" transform="translate(-613.334 -178.008)" fill="#fff"/>
      </g>
      <g id="Group_355" data-name="Group 355" transform="translate(41.35)">
        <path id="Path_2242" data-name="Path 2242" d="M629.671,189.914v9.374h3.2v1.079H621.406v-1.079h2.779v-20.2h-2.779v-1.081h10.61c3.129,0,5.39.585,6.717,1.766a5.4,5.4,0,0,1,2,4.135,5.346,5.346,0,0,1-2.229,4.2c-1.473,1.207-4.106,1.806-7.851,1.806Zm0-10.825v9.746H630.8a8.481,8.481,0,0,0,2.282-.244,2.24,2.24,0,0,0,1.325-1.306,8.1,8.1,0,0,0,.51-3.375,7.835,7.835,0,0,0-.51-3.314,2.132,2.132,0,0,0-1.284-1.272,8.4,8.4,0,0,0-2.249-.234Z" transform="translate(-621.406 -178.008)" fill="#fff"/>
      </g>
    </g>
  </g>
  <g id="Group_358" data-name="Group 358" transform="translate(16.191)">
    <path id="Path_2243" data-name="Path 2243" d="M610.54,178.913a5.771,5.771,0,0,1-1.91-.9l.843-1.871a5.712,5.712,0,0,0,1.643.811,6.156,6.156,0,0,0,1.9.307,3.022,3.022,0,0,0,1.564-.315.944.944,0,0,0,.506-.835.792.792,0,0,0-.3-.636,2.259,2.259,0,0,0-.766-.408q-.47-.154-1.266-.337a17.538,17.538,0,0,1-2.009-.583,3.278,3.278,0,0,1-1.343-.935,2.533,2.533,0,0,1-.559-1.719,2.993,2.993,0,0,1,.506-1.694,3.413,3.413,0,0,1,1.526-1.205,6.245,6.245,0,0,1,2.493-.445,8.252,8.252,0,0,1,2.009.246,5.983,5.983,0,0,1,1.719.7l-.768,1.887a6,6,0,0,0-2.976-.843,2.8,2.8,0,0,0-1.542.337,1.031,1.031,0,0,0-.5.89.872.872,0,0,0,.575.821,9.116,9.116,0,0,0,1.757.53,17.048,17.048,0,0,1,2.009.583,3.318,3.318,0,0,1,1.343.92,2.471,2.471,0,0,1,.559,1.7,2.931,2.931,0,0,1-.514,1.68,3.465,3.465,0,0,1-1.54,1.205,6.312,6.312,0,0,1-2.5.445A8.839,8.839,0,0,1,610.54,178.913Z" transform="translate(-608.63 -167.692)" fill="#fff"/>
    <path id="Path_2244" data-name="Path 2244" d="M617.485,176.063l-1.15,1.134v2.1h-2.393v-11.38h2.393v6.441l3.5-3.312h2.854l-3.436,3.5,3.743,4.754h-2.9Z" transform="translate(-603.482 -167.918)" fill="#fff"/>
    <path id="Path_2245" data-name="Path 2245" d="M627.651,169.507l-3.728,8.757a4.334,4.334,0,0,1-1.4,2.011,3.451,3.451,0,0,1-2.019.583,4.159,4.159,0,0,1-1.272-.2,2.809,2.809,0,0,1-1.028-.551l.874-1.7a2.061,2.061,0,0,0,.636.384,1.973,1.973,0,0,0,.713.138,1.26,1.26,0,0,0,.8-.238,2,2,0,0,0,.553-.79l.03-.077-3.574-8.312H620.7l2.318,5.6,2.332-5.6Z" transform="translate(-599.352 -166.378)" fill="#fff"/>
  </g>
</svg>
