<svg id="Group_554" data-name="Group 554" xmlns="http://www.w3.org/2000/svg" width="69.464" height="63.227" viewBox="0 0 69.464 63.227">
  <g id="Group_550" data-name="Group 550" transform="translate(0 20.198)">
    <path id="Path_2309" data-name="Path 2309" d="M1049.613,140.508a4.973,4.973,0,0,1-.876-.067,7.132,7.132,0,0,1-2.683-1.176l-.185-.123-.1-.2-.232-.143a6.2,6.2,0,0,1-1.65-3.731l0-1.739,0-11.408.282-2.187.844-1.585,1.179-1.194.968-.577.7-.262a9.761,9.761,0,0,1,1.754-.288l.382.01c.207.005.41.013.617.007a1.188,1.188,0,0,1,.878.3,1.114,1.114,0,0,1,.343.807,10.771,10.771,0,0,0-.009,1.647l0,4.92-.005,1.679.005,1.586-.005,1.684.005,1.588-.035,9.322a1.112,1.112,0,0,1-.326.868l-.267.247-.508.013c-.227-.017-.456-.008-.68-.005C1049.883,140.5,1049.75,140.508,1049.613,140.508Zm-2.485-2.55a5.092,5.092,0,0,0,1.9.826,5.279,5.279,0,0,0,.94.037c.051,0,.1,0,.151,0,0-.131.009-.257.013-.383l.01-8.378-.005-1.586.005-1.685-.005-1.586.005-6.543c-.025-.384-.035-.762-.025-1.127l-.19-.005-.281-.01a8.415,8.415,0,0,0-1.319.22l-.459.165-.715.441-.841.885-.594,1.142.008.02-.062.212-.1,1.4,0,9.744,0,3.27a4.424,4.424,0,0,0,1.134,2.569A1.6,1.6,0,0,1,1047.128,137.958Z" transform="translate(-1043.885 -115.832)" fill="#06c"/>
  </g>
  <g id="Group_551" data-name="Group 551" transform="translate(61.494 20.198)">
    <path id="Path_2310" data-name="Path 2310" d="M1082.257,140.533c-.165,0-.332-.007-.5-.017a1.209,1.209,0,0,1-1.287-1.322c.008-1.036,0-2.071-.012-3.1-.007-.772-.013-1.544-.013-2.316,0-1.336,0-2.671.012-4.008.005-1.248.012-2.5.012-3.748q0-2.664-.015-5.332l-.012-2.962c0-1.425.336-1.8,1.721-1.892l1.864.172,1.265.506a1.189,1.189,0,0,0,.292.136l.216.116a6.279,6.279,0,0,1,2.377,3.241c.044.193.061.32.079.446a1.361,1.361,0,0,0,.072.36l.084.367-.005,3.4q-.007,4.67,0,9.335a9.033,9.033,0,0,1-.362,2.834l-.348.786-1.034,1.369-.866.68A6.88,6.88,0,0,1,1082.257,140.533Zm-.1-1.689a5.071,5.071,0,0,0,2.7-.658l.673-.542.745-1.024.193-.464a7.476,7.476,0,0,0,.254-2.244q-.008-4.67.005-9.34l.005-3.233a3.091,3.091,0,0,1-.143-.671c-.01-.081-.02-.163-.039-.244a4.6,4.6,0,0,0-1.667-2.247,2.412,2.412,0,0,1-.577-.3l-.718-.244-1.435-.121-.028.005c0,.061,0,.13,0,.205l.012,2.96q.01,2.669.015,5.339c0,1.251-.006,2.5-.012,3.756-.007,1.332-.013,2.666-.011,4,0,.767.006,1.534.013,2.3C1082.151,137,1082.16,137.921,1082.156,138.844Z" transform="translate(-1080.444 -115.832)" fill="#06c"/>
  </g>
  <g id="Group_552" data-name="Group 552" transform="translate(9.236)">
    <path id="Path_2311" data-name="Path 2311" d="M1072.2,167.051a3.227,3.227,0,0,1-3.248-1.837,1.163,1.163,0,0,1-.145-.03l-.278-.039a7.418,7.418,0,0,0-1.435-.306l-.247-.056a7.793,7.793,0,0,0-1.332-.377l-1.7-.569c-.146-.062-.229-.1-.311-.148l-.727-.289a1.144,1.144,0,0,0-.338-.15c-.108-.039-.214-.076-.318-.119a12.445,12.445,0,0,0-1.674-.848l-.209-.126a1.88,1.88,0,0,0-.516-.309l-.155-.082-1.266-.883c-.244-.185-.485-.37-.739-.542a10.247,10.247,0,0,1-1.193-1c-.232-.22-.466-.441-.716-.639h-.113l-.661-.779c-.777-.928-1.583-1.887-2.3-2.913a3.986,3.986,0,0,0-.491-.8l-.135-.207a2.648,2.648,0,0,0-.365-.673l-.141-.209-.819-1.623.022-.086-1.262-3.181,0-1.679q0-3.209.007-6.42,0-1.784-.015-3.569l-.008-1.536a6.028,6.028,0,0,0,.005-1.359l-.005-1.918a5.984,5.984,0,0,0,.005-1.354l-.005-1.918a5.984,5.984,0,0,0,.005-1.354l-.005-2.15.495-1.659,1.331-3.322,2.441-4.3.764-1.026c.146-.19.294-.378.447-.563l2.072-2.494s2.358-2.084,3.363-2.865c.1-.072.177-.121.252-.167l1.43-1c1.023-.6,2.118-1.176,3.381-1.788l.88-.33a24.308,24.308,0,0,1,2.513-.844l1.7-.407,1.882-.269,1.509-.114,1.67.01,3.377.328,1.723.347,3.431,1.137,3.337,1.682c1.177.747,2.257,1.561,3.3,2.345l.18.158,1.822,1.674,1.573,1.724c.8,1.024,1.657,2.133,2.429,3.332l1.114,1.875a8.872,8.872,0,0,0,.671,1.329l.219.51a5.165,5.165,0,0,0,.416.881l.2.493.587,1.591a6.489,6.489,0,0,0,.2.648,4.075,4.075,0,0,1,.288,1.3l.008,1.6-.008,1.69.008,1.581-.008,1.69.013,3.156,0,1.7,0,9.822-.015.276c-.02,1.573-.382,1.946-1.938,1.995a9.951,9.951,0,0,1-1.852-.37,7.705,7.705,0,0,1-1.971-1.253l-.151-.146a9.683,9.683,0,0,1-1.156-1.756,8.248,8.248,0,0,1-.444-3.009q.013-6.149,0-12.3a5.763,5.763,0,0,1,.957-3.238,4.33,4.33,0,0,0-.259-1.046l-.089-.219a16.038,16.038,0,0,0-1.219-3.093,17.857,17.857,0,0,0-1.8-3.184,7.868,7.868,0,0,0-.807-1.125l-.375-.488a9.792,9.792,0,0,0-1.2-1.373l-.212-.225a9.079,9.079,0,0,0-1.367-1.29l-.278-.232a6.83,6.83,0,0,0-1.172-.917,13.794,13.794,0,0,0-3.285-1.879,11.421,11.421,0,0,0-3.176-1.053l-.178-.047a4.147,4.147,0,0,0-1.307-.249,17.027,17.027,0,0,0-4.7.01,7.049,7.049,0,0,0-1.534.286,13.882,13.882,0,0,0-3.159,1.093,12.9,12.9,0,0,0-3.127,1.808,6.189,6.189,0,0,0-1.008.738l-.479.419-.375.318a8.005,8.005,0,0,0-.871.817l-.638.681a7.759,7.759,0,0,0-.752.861l-.447.6-.19.242c-.276.318-.94,1.329-.94,1.329a6.535,6.535,0,0,0-.688,1.164l-.1.182a7.305,7.305,0,0,0-.764,1.473,15.842,15.842,0,0,0-1.263,3.149l-.326.9.025.03a5.074,5.074,0,0,1,.673,1.172c.061.13.121.259.185.387l.1.192-.007.192.089.106.15,3.376-.01,11.633a7.01,7.01,0,0,1-1.362,3.292c.119.345.222.624.323.9l.222.624a2.455,2.455,0,0,0,.308.712l.131.237.076.234.072.156a6.5,6.5,0,0,0,.733,1.324l.094.15a3.148,3.148,0,0,0,.564.873l.15.148.061.2a1.592,1.592,0,0,0,.136.158l.12.141a7.28,7.28,0,0,0,1.127,1.278l.306.3a5.854,5.854,0,0,0,1.248,1.122l1.645,1.176a7.089,7.089,0,0,0,1.368.764l.128-.015.269.2a4.066,4.066,0,0,0,1.006.471l1.8.6a5.742,5.742,0,0,0,1.06.325l.5.1a2.041,2.041,0,0,0,.414.109,1.529,1.529,0,0,1,.526-.587l.311-.212a4.2,4.2,0,0,1,1.808-.355c.362.005.876,0,1.315,0q1.721,0,3.443-.007l1.978-.007a3.465,3.465,0,0,1,2,.752l.553.621a3.853,3.853,0,0,1,.468,2.024l-.04,3.563-.895,1.433-.814.6-.244.017a.5.5,0,0,0-.193.086l-.182.114-.217.012-.31.022-.167.013H1072.2Zm-4.856-3.879a8.217,8.217,0,0,1,1.539.333l.417.072a1.062,1.062,0,0,1,1.1.738c.214.631.6,1.053,1.8,1.053h.022l6.733-.022a2.1,2.1,0,0,1,.488-.18l.31-.227.363-.644.03-3.139a2.193,2.193,0,0,0-.221-1.1l-.252-.278a1.831,1.831,0,0,0-.908-.3l-1.931.008q-2.377.008-4.748.005h-.017a2.688,2.688,0,0,0-1.02.163l-.1.074a1.8,1.8,0,0,1-2.318.764l-.116.025-.389-.124a6.511,6.511,0,0,1-1.283-.4l-1.778-.587a6.774,6.774,0,0,1-1.122-.5l-.15.02-.183-.2a8.7,8.7,0,0,1-1.67-.925l-1.707-1.221a7.385,7.385,0,0,1-1.423-1.26,1.189,1.189,0,0,1-.355-.355,9.018,9.018,0,0,1-1.275-1.468,2.162,2.162,0,0,1-.407-.56,4.882,4.882,0,0,1-.723-1.117,8.247,8.247,0,0,1-.881-1.584l-.156-.389a3.956,3.956,0,0,1-.5-1.134l-.2-.569c-.141-.385-.283-.772-.41-1.162a1.045,1.045,0,0,1,.3-1.307,5.187,5.187,0,0,0,1.058-2.446l-.007-.774,0-1.016-.029-.478,0-.437.027-.636v-1.731l-.027-.468v-.437l.027-.636V134.9l-.027-.479,0-.442.023-.629V131.63l-.027-.479,0-.436.029-.638-.1-1.1a1.471,1.471,0,0,1-.135-.513c-.042-.089-.083-.18-.126-.272a4.321,4.321,0,0,0-.4-.749,1.437,1.437,0,0,1-.358-1.706l.314-.861a16.863,16.863,0,0,1,1.343-3.352,8.893,8.893,0,0,1,.859-1.657,8.435,8.435,0,0,1,.821-1.394l.019-.027.328-.5a6.746,6.746,0,0,1,.69-.922l.17-.219.4-.538a8.808,8.808,0,0,1,.836-.974l.629-.666a9.449,9.449,0,0,1,1.062-1.011l.311-.357.52-.358a6.634,6.634,0,0,1,1.2-.873,13.648,13.648,0,0,1,3.366-1.948,14.774,14.774,0,0,1,3.413-1.182,7.908,7.908,0,0,1,1.771-.335,18.438,18.438,0,0,1,5.058-.013,5.71,5.71,0,0,1,1.672.323,12.928,12.928,0,0,1,3.5,1.157,15.155,15.155,0,0,1,3.573,2.04,7.841,7.841,0,0,1,1.347,1.06l.19.153a10.58,10.58,0,0,1,1.606,1.522,12.346,12.346,0,0,1,1.477,1.674l.321.426a8.621,8.621,0,0,1,.922,1.278,18.877,18.877,0,0,1,1.922,3.4,17.515,17.515,0,0,1,1.3,3.277,5.16,5.16,0,0,1,.444,1.415,1.234,1.234,0,0,1-.256,1.243,4.069,4.069,0,0,0-.718,2.362q0,6.154,0,12.3a6.67,6.67,0,0,0,.3,2.331,8.4,8.4,0,0,0,.866,1.305,6.152,6.152,0,0,0,1.455.95,9.332,9.332,0,0,0,1.339.267c.044-.005.113-.008.183-.012,0-.1,0-.219.005-.33l.015-1.849-.013-19.626a2.8,2.8,0,0,0-.2-.779,6.149,6.149,0,0,1-.215-.727l-.506-1.344a1.2,1.2,0,0,1-.182-.452,7.127,7.127,0,0,1-.466-1.013l-.148-.36a8.309,8.309,0,0,1-.693-1.378l-1.026-1.7c-.722-1.125-1.551-2.2-2.335-3.2l-1.763-1.886-1.529-1.389c-.982-.732-2.034-1.524-3.115-2.212l-1.529-.834-1.566-.73-3.245-1.075-3.119-.528-3.162-.1-1.386.106-1.751.249-1.607.385a24.065,24.065,0,0,0-2.33.787l-.816.3c-1.144.562-2.2,1.122-3.157,1.677l-.9.575a2.06,2.06,0,0,1-.54.429,26.744,26.744,0,0,0-2.976,2.552,1.431,1.431,0,0,1-.372.3l-1.914,2.3c-.141.172-.279.348-.415.523l-1.2,1.749-1.817,3.267-1.258,3.152-.4,1.351v1.808a6.7,6.7,0,0,1-.005,1.548l.005,1.722a6.72,6.72,0,0,1-.005,1.549l.005,1.722a6.72,6.72,0,0,1-.005,1.549l.013,1.433q.01,1.789.015,3.579,0,3.212-.007,6.425l0,1.046a1.188,1.188,0,0,1,.084.36l1.194,3.122.57,1.213a3.782,3.782,0,0,1,.52.9,4.488,4.488,0,0,1,.587.96c.607.855,1.386,1.783,2.14,2.683l.32.38a11.6,11.6,0,0,1,1.034.892,8.037,8.037,0,0,0,.991.841c.274.188.54.39.806.592l1.117.78a3.591,3.591,0,0,1,.776.456,12.269,12.269,0,0,1,1.687.865l.1.019a2.932,2.932,0,0,1,.674.308,1.986,1.986,0,0,1,.638.239l1.648.577A8.341,8.341,0,0,1,1067.344,163.172Zm-11.894-16.844,0,.013Z" transform="translate(-1049.376 -103.824)" fill="#06c"/>
  </g>
  <g id="Group_553" data-name="Group 553" transform="translate(17.322 8.045)">
    <path id="Path_2312" data-name="Path 2312" d="M1077.974,126.614l-3.041-.209a6.5,6.5,0,0,0-1.1-.182l-.22-.024c-1.051-.269-2.062-.548-3.05-.895l-2.1-1a3.469,3.469,0,0,0-.6-.382c-.121-.067-.242-.133-.36-.205a17.37,17.37,0,0,1-3.194-2.826c-.274-.328-.575-.693-.883-1.1a9.734,9.734,0,0,1-3.887,3.662l-1.77.651-1.354.2-2.023-.02-.215-.821.054-.244.928-2.617,1.7-3.245a.871.871,0,0,0,.205-.3l.1-.187.493-.681a23.437,23.437,0,0,1,3.872-4.081l.155-.1a2.1,2.1,0,0,0,.515-.377l.118-.093.935-.589a25.555,25.555,0,0,1,2.9-1.415l1.652-.488a16.582,16.582,0,0,1,4.412-.439,17.532,17.532,0,0,1,2.409.289l.626.1,1.437.427a26.426,26.426,0,0,1,3.142,1.468l.249.168a24.613,24.613,0,0,1,2.723,2.089,23.109,23.109,0,0,1,3.61,4.4,31.663,31.663,0,0,1,1.539,3.018l.873,2.466a1.431,1.431,0,0,0,.049.148,1.638,1.638,0,0,1,.124.88l-.061.352-.686.35a8.062,8.062,0,0,0-1.349.412l-2.893.745-1.571.3-.083,0a2.775,2.775,0,0,0-.747.091c-.2.039-.4.074-.6.1Zm-2.7-1.662,2.7.177,2.895-.192c.145-.017.3-.049.466-.077a5.031,5.031,0,0,1,.979-.119l1.373-.264,2.732-.695a5.533,5.533,0,0,1,.977-.331,1.382,1.382,0,0,1-.047-.237l-.21-.685-.558-1.379a30.548,30.548,0,0,0-1.437-2.819,21.543,21.543,0,0,0-3.352-4.076,22.725,22.725,0,0,0-2.558-1.96l-.182-.126a25.429,25.429,0,0,0-2.844-1.327l-1.285-.385-.54-.084a15.94,15.94,0,0,0-2.2-.267,14.991,14.991,0,0,0-3.991.387l-1.531.449a24.657,24.657,0,0,0-2.629,1.287l-.853.538a3.6,3.6,0,0,1-.74.537,22.044,22.044,0,0,0-3.569,3.766l-.437.607a2.411,2.411,0,0,1-.4.622l-1.5,2.915-.592,1.611.392.005,1.154-.182,1.472-.552a8.327,8.327,0,0,0,3.287-3.184l.959-2.109.738,1.127a20.888,20.888,0,0,0,1.524,2,15.91,15.91,0,0,0,2.876,2.548l.251.136a5.081,5.081,0,0,1,.737.459,1.526,1.526,0,0,1,.432.232l1.367.617c.88.3,1.857.574,2.772.816l.108,0A8,8,0,0,1,1075.271,124.952Z" transform="translate(-1054.183 -108.607)" fill="#06c"/>
  </g>
</svg>
