<svg id="Group_16" data-name="Group 16" xmlns="http://www.w3.org/2000/svg" width="69.692" height="46.147" viewBox="0 0 69.692 46.147">
  <g id="Group_5" data-name="Group 5" transform="translate(24.85 12.676)">
    <path id="Path_9" data-name="Path 9" d="M826.426,188.061H817.4a2.086,2.086,0,0,1-.5-.044.665.665,0,0,1-.547-.764l.007-.038a10.178,10.178,0,0,1,3.815-6.607c.378-.3.792-.553,1.191-.826a.407.407,0,0,1,.572.058l.006.008A6.552,6.552,0,0,0,826,181.544a6.728,6.728,0,0,0,4.648-1.459,1.214,1.214,0,0,0,.119-.1c.441-.383.436-.375.923-.069a10.372,10.372,0,0,1,3.652,3.843,10.656,10.656,0,0,1,1.144,3.456.664.664,0,0,1-.5.794l-.036.007a2.086,2.086,0,0,1-.5.044Z" transform="translate(-816.344 -169.095)" fill="#fff"/>
    <path id="Path_10" data-name="Path 10" d="M825.653,170.966a5.709,5.709,0,0,1,5.732,5.685v.035a5.73,5.73,0,1,1-5.746-5.72Z" transform="translate(-815.576 -170.966)" fill="#fff"/>
  </g>
  <g id="Group_6" data-name="Group 6">
    <g id="Path_11" data-name="Path 11">
      <path id="Path_2238" data-name="Path 2238" d="M862.867,178.307V171.43a8.225,8.225,0,0,0-8.2-8.2H806.784a8.216,8.216,0,0,0-8.194,8.2v24.33a8.209,8.209,0,0,0,8.194,8.2h47.888a8.218,8.218,0,0,0,8.2-8.2v-8.134h2.707v8.134a10.939,10.939,0,0,1-10.9,10.914H806.784a10.947,10.947,0,0,1-10.9-10.914V171.43a10.928,10.928,0,0,1,10.9-10.9h47.888a10.92,10.92,0,0,1,10.9,10.9v6.877Z" transform="translate(-795.882 -160.528)" fill="#fff"/>
    </g>
  </g>
</svg>
