<svg xmlns="http://www.w3.org/2000/svg" width="53.833" height="53.833" viewBox="0 0 53.833 53.833">
  <g id="Group_455" data-name="Group 455" transform="translate(-541.05 -160.666)">
    <g id="Group_378" data-name="Group 378" transform="translate(541.05 160.666)">
      <g id="Group_374" data-name="Group 374">
        <path id="Path_2251" data-name="Path 2251" d="M558.256,160.666v3H545.719a.665.665,0,0,0-.666.666v12.537h-3V164.335a3.67,3.67,0,0,1,3.669-3.669Z" transform="translate(-542.05 -160.666)" fill="#fff"/>
      </g>
      <g id="Group_375" data-name="Group 375" transform="translate(37.542)">
        <path id="Path_2252" data-name="Path 2252" d="M584.757,164.335v12.537h-3V164.335a.665.665,0,0,0-.666-.666H568.55v-3h12.538A3.67,3.67,0,0,1,584.757,164.335Z" transform="translate(-568.55 -160.666)" fill="#fff"/>
      </g>
      <g id="Group_376" data-name="Group 376" transform="translate(0 37.542)">
        <path id="Path_2253" data-name="Path 2253" d="M558.256,200.369v3H545.719a3.67,3.67,0,0,1-3.669-3.669V187.166h3V199.7a.665.665,0,0,0,.666.666Z" transform="translate(-542.05 -187.166)" fill="#fff"/>
      </g>
      <g id="Group_377" data-name="Group 377" transform="translate(37.612 37.641)">
        <path id="Path_2254" data-name="Path 2254" d="M584.821,187.236v12.509a3.694,3.694,0,0,1-3.683,3.683H568.6v-3h12.538a.671.671,0,0,0,.68-.68V187.236Z" transform="translate(-568.6 -187.236)" fill="#fff"/>
      </g>
    </g>
    <g id="Group_379" data-name="Group 379" transform="translate(554.679 174.294)">
      <path id="Path_2255" data-name="Path 2255" d="M575.229,170.286H554.688a3.02,3.02,0,0,0-3.017,3.018v20.542a3.02,3.02,0,0,0,3.017,3.018h20.542a3.017,3.017,0,0,0,3-3.018V173.3A3.017,3.017,0,0,0,575.229,170.286ZM554.673,173.3c0-.014,0-.014.014-.014l20.542.014v20.556l-20.556-.014Z" transform="translate(-551.67 -170.286)" fill="#fff"/>
    </g>
  </g>
</svg>
