<svg xmlns="http://www.w3.org/2000/svg" xmlns:xlink="http://www.w3.org/1999/xlink" width="199.484" height="199.484" viewBox="0 0 199.484 199.484">
  <defs>
    <filter id="Ellipse_834" x="0" y="0" width="199.484" height="199.484" filterUnits="userSpaceOnUse">
      <feOffset input="SourceAlpha"/>
      <feGaussianBlur stdDeviation="5" result="blur"/>
      <feFlood flood-color="#1f1f1f" flood-opacity="0.302"/>
      <feComposite operator="in" in2="blur"/>
      <feComposite in="SourceGraphic"/>
    </filter>
  </defs>
  <g id="Group_570" data-name="Group 570" transform="translate(-2652.423 328.375)">
    <g transform="matrix(1, 0, 0, 1, 2652.42, -328.38)" filter="url(#Ellipse_834)">
      <circle id="Ellipse_834-2" data-name="Ellipse 834" cx="83.242" cy="83.242" r="83.242" transform="translate(16.5 16.5)" fill="#18bb33" stroke="#fff" stroke-width="3"/>
    </g>
    <g id="Group_568" data-name="Group 568" transform="translate(2661.472 -308.723)">
      <path id="Path_2327" data-name="Path 2327" d="M2662.939-310.119s104.811,54.729,111.107,59.078,7.8,6.3,6.3,13.495-2.4,12.9-2.4,12.9,6.3-10.8,6.747-15.595v-3.017s10.215,2.587,11.059,1.294,1.35-6.354-1.8-7.48c0,0,9-3.428,16.194,6.692s4.161,10.459,6.3,12.764a10.341,10.341,0,0,1,2.36,8.435s-1.35-6.41-8.322-4.385-21.705,13.326-23.841,34.13c0,0-1.519,10.066-1.405,12.371,0,0-3.038-12.6-3.712-20.411l-.28-3.823s-2.025,15.8.337,26.37l2.3,13.046s-10.908-12.988-13.439-20.748c0,0-21.892,1.592-27.589-8l-.75-1.987s20.993.788,22.717-4.461c0,0-23.317,1.949-31.263-.451s-13.271-11.92-13.271-11.92h41.985s.3-2.924-.826-2.924h-37.935s-14.1-3.6-22.042-15.668l-3.073-5.4,59.228,11.77s2.024.9,2.773-2.025c0,0-53.679-11.395-65.224-15.668s-14.544-15.519-18.294-26.614l-.824-2.551,71.9,31.938,10.2,4.5s3.3-1.425-1.723-5.1c0,0-80.221-36.061-82.77-37.711S2656.94-286.953,2662.939-310.119Zm143.833,71.257s.282-.289.311,1.852,2.313,3.475,2.313,3.475a10.741,10.741,0,0,1-.4-2.086,4.109,4.109,0,0,0-1.353-2.49Z" transform="translate(-2661.472 310.119)" fill="#fff"/>
    </g>
  </g>
</svg>
