<svg id="Group_12" data-name="Group 12" xmlns="http://www.w3.org/2000/svg" width="58.221" height="53.095" viewBox="0 0 58.221 53.095">
  <g id="Group_3" data-name="Group 3" transform="translate(0 9.909)">
    <path id="Path_7" data-name="Path 7" d="M806.59,179.7a5.989,5.989,0,0,0-2.781-5.575,7.939,7.939,0,0,0-3.982-.93c-5.61-.015-11.229-.184-16.83.064a9.673,9.673,0,0,1-8.456-3.238,6.912,6.912,0,0,0-5.71-2.225c-4.47.087-8.94.018-13.423.029-4.593.011-6.958,2.274-6.969,6.731q-.029,14.8,0,29.595c.008,4.5,2.438,6.8,7.146,6.8q10.975.013,21.95,0c7.459,0,14.915.015,22.374-.007,4.149-.015,6.667-2.423,6.682-6.411q.017-5.726.02-11.454Q806.607,186.39,806.59,179.7Zm-3.114,24.14c0,2.975-1.028,3.984-4.08,3.992-7.321.018-14.64,0-21.957,0H755.907c-3.365-.007-4.346-.946-4.35-4.139V174.915c0-2.352.63-3.492,2.383-3.89a8.417,8.417,0,0,1,1.862-.176c.324,0,.654,0,.978-.008,3.936-.022,7.88-.1,11.809.075a6.287,6.287,0,0,1,3.911,1.569,12.094,12.094,0,0,0,10.057,3.8c5.6-.293,11.222-.082,16.834-.067,3,.007,4.075,1.066,4.08,4.016q.01,6.95.008,13.9v3.794q.006,2.954,0,5.91Z" transform="translate(-748.423 -167.766)" fill="#fff"/>
  </g>
  <path id="Path_8" data-name="Path 8" d="M804.812,174.862c-.011-4.97-2.172-7.726-6.031-7.741-5-.02-10.013-.222-15,.074a7.649,7.649,0,0,1-7.543-3.855,5.478,5.478,0,0,0-5.087-2.654c-3.989.1-7.979.02-11.971.035-3.791.015-5.882,2.327-6.175,6.874h2.829c.279-2.411,1.323-3.259,3.7-3.27,3.8-.015,7.61-.152,11.4.084a4.97,4.97,0,0,1,3.484,1.863c2.491,3.436,5.32,4.777,8.97,4.522,4.989-.345,10-.1,15.009-.08,2.678.01,3.632,1.273,3.64,4.783v12.288q0,7.907-.007,15.808a9.478,9.478,0,0,1-.316,2.732v4.985c1.859-1.066,2.963-3.29,3.073-6.375.008-.168.011-.339.011-.518Q804.848,189.639,804.812,174.862Z" transform="translate(-746.606 -160.672)" fill="#fff"/>
</svg>
