<svg id="Group_557" data-name="Group 557" xmlns="http://www.w3.org/2000/svg" width="69.239" height="66.432" viewBox="0 0 69.239 66.432">
  <g id="Group_555" data-name="Group 555">
    <path id="Path_2313" data-name="Path 2313" d="M1131.572,169.8c-.125,0-.249,0-.373,0l-1.2-.062-.32,0c-.91.015-1.822.024-2.737-.029-1.712-.1-2.357-.787-2.375-2.543,0-.257.019-.537.04-.816a3.148,3.148,0,0,0-.022-1.083,3.458,3.458,0,0,0-.982-.232c-.286-.045-.572-.091-.826-.156a30.191,30.191,0,0,1-8.805-3.733,1.268,1.268,0,0,0-.175-.1c-.015.017-.049.047-.1.094-.484.493-.992.96-1.5,1.425-.421.382-.84.764-1.241,1.161a1.742,1.742,0,0,1-2.367.247,8.935,8.935,0,0,1-1.425-1.119c-1.366-1.421-2.7-2.868-4.04-4.316a7.479,7.479,0,0,1-.858-1.112c-.87-1.368-.782-2.045.4-3.162l.415-.389c.574-.538,1.147-1.077,1.734-1.6a29.048,29.048,0,0,1-3.759-8.3c.019.067-.076,0-.121-.01a21.487,21.487,0,0,0-3.044-.079,1.862,1.862,0,0,1-2.119-1.746,16.878,16.878,0,0,1-.187-2.59c.013-1.749.079-3.5.148-5.25a7.709,7.709,0,0,1,.232-1.416,1.937,1.937,0,0,1,2.208-1.608c.429.042.858.047,1.289.052.387.005.777.01,1.164.035h.052a27.459,27.459,0,0,1,3.934-9.768c-.4-.436-.769-.8-1.137-1.162-.432-.427-.866-.854-1.322-1.257a1.932,1.932,0,0,1-.382-2.7,7.752,7.752,0,0,1,.907-1.238c1.305-1.379,2.631-2.742,3.955-4.1l.318-.328a7,7,0,0,1,.718-.619c1.45-1.1,2.2-1.055,3.5.2l.639.617c.565.54,1.129,1.078,1.677,1.635a.253.253,0,0,1,.025.035,29.573,29.573,0,0,1,9.32-4c.044-.575.049-1.033.054-1.494.005-.515.012-1.028-.015-1.541a1.833,1.833,0,0,1,1.551-2.039,8.9,8.9,0,0,1,1.795-.23c1.8-.022,3.6-.015,5.393-.005l.49,0a6.8,6.8,0,0,1,1.248.1c1.687.33,2.1.831,2.123,2.562,0,.281-.019.58-.041.881a3.092,3.092,0,0,0,.057,1.3,4.223,4.223,0,0,0,1.014.2,8.293,8.293,0,0,1,.96.156,30.214,30.214,0,0,1,9.25,3.87c.081.05.136.081.172.1.015-.018.042-.045.079-.084.466-.5.962-.971,1.46-1.442.394-.373.789-.747,1.167-1.135a1.9,1.9,0,0,1,2.5-.325l.2.133.634.565a27.743,27.743,0,0,1,6.229,7,1.824,1.824,0,0,1-.463,2.459c-.449.4-.878.824-1.307,1.246-.354.347-.707.693-1.068,1.029l-.039.035a27.288,27.288,0,0,1,3.6,9.129c.458-.015.8-.02,1.137-.024.419-.005.839-.01,1.255-.049a1.863,1.863,0,0,1,2.187,1.706c.133.96.272,2.1.32,3.262.062,1.645.054,3.263.035,4.629a3.943,3.943,0,0,1-.355,1.8,2.322,2.322,0,0,1-1.628,1.157,24.026,24.026,0,0,1-2.636.1h-.565a28.668,28.668,0,0,1-3.738,8.38c.416.382.728.676,1.043.972.412.39.824.779,1.257,1.145a2,2,0,0,1,.424,2.779,9.167,9.167,0,0,1-.957,1.307c-1.3,1.425-2.621,2.833-3.943,4.24a7.5,7.5,0,0,1-.836.762c-1.483,1.176-2.146,1.151-3.546-.151l-.609-.562c-.569-.521-1.137-1.046-1.684-1.59a.7.7,0,0,0-.135-.114,27.981,27.981,0,0,1-9.6,4.071.708.708,0,0,0-.22.072,8.841,8.841,0,0,1,.071,1.6l-.008.579c0,1.687-.555,2.309-2.193,2.468-.715.069-1.437.077-2.16.084l-.831.012C1131.831,169.8,1131.7,169.8,1131.572,169.8Zm-.733-1.754.841.072c.081,0,.161,0,.242,0l.851-.012c.675-.007,1.347-.012,2.017-.077a1.655,1.655,0,0,0,.631-.123,4.39,4.39,0,0,0,.041-.673l.008-.609a12.554,12.554,0,0,0-.017-1.336,1.69,1.69,0,0,1,1.487-1.948,27.664,27.664,0,0,0,9.058-3.768,1.629,1.629,0,0,1,2.229.262c.53.53,1.083,1.036,1.637,1.542l.615.57a4.337,4.337,0,0,0,.7.565c.074-.037.516-.389.661-.5a5.532,5.532,0,0,0,.651-.592c1.317-1.4,2.633-2.806,3.928-4.222a7.255,7.255,0,0,0,.769-1.058c.2-.328.168-.4-.079-.611-.454-.387-.89-.8-1.326-1.208-.325-.308-.651-.614-.987-.91a1.506,1.506,0,0,1-.328-2.173,25.408,25.408,0,0,0,3.462-7.825,1.628,1.628,0,0,1,1.7-1.349h.573a22.843,22.843,0,0,0,2.451-.087.776.776,0,0,0,.323-.267,2.727,2.727,0,0,0,.161-1.041c.019-1.347.027-2.939-.035-4.545-.042-1.088-.177-2.178-.3-3.1-.034-.246-.039-.283-.37-.259-.459.042-.922.049-1.384.056-.34,0-.68.007-1.018.029a1.54,1.54,0,0,1-1.786-1.331,25.282,25.282,0,0,0-3.394-8.6,1.547,1.547,0,0,1,.338-2.151c.348-.325.688-.659,1.028-.994.449-.441.9-.881,1.366-1.3a.712.712,0,0,0,.188-.219.793.793,0,0,0-.074-.172c-1.445-2.6-3.6-4.528-5.879-6.563l-.562-.5c-.276-.146-.311-.1-.451.04-.4.407-.806.8-1.218,1.188-.473.447-.945.893-1.389,1.369a1.693,1.693,0,0,1-2.385.252,28.61,28.61,0,0,0-8.742-3.653,6.791,6.791,0,0,0-.77-.121,2.975,2.975,0,0,1-2.163-.871,3.567,3.567,0,0,1-.377-2.412c.019-.254.039-.506.035-.742a3.687,3.687,0,0,0-.061-.779c-.032,0-.281-.069-.7-.148a4.957,4.957,0,0,0-.935-.072l-.49,0c-1.791-.012-3.578-.017-5.366.005a7.365,7.365,0,0,0-1.462.193.44.44,0,0,0-.2.077.473.473,0,0,0-.022.224c.031.55.024,1.1.019,1.653,0,.432-.01.866.005,1.3a1.631,1.631,0,0,1-1.359,1.815,27.542,27.542,0,0,0-8.77,3.768,1.553,1.553,0,0,1-2.156-.266c-.537-.543-1.089-1.071-1.64-1.6l-.647-.622c-.426-.41-.575-.495-.629-.508a2.865,2.865,0,0,0-.678.441,4.573,4.573,0,0,0-.531.454l-.318.325c-1.319,1.359-2.637,2.715-3.939,4.089a6.266,6.266,0,0,0-.707.979c-.173.274-.167.325.074.537.478.424.933.871,1.389,1.32.353.348.708.7,1.075,1.034a1.58,1.58,0,0,1,.294,2.239,25.461,25.461,0,0,0-3.682,9.15,1.553,1.553,0,0,1-1.835,1.383c-.353-.024-.71-.027-1.068-.032-.476-.007-.952-.013-1.423-.057-.3-.032-.336-.012-.414.311a6.372,6.372,0,0,0-.188,1.105c-.069,1.731-.135,3.462-.148,5.194a15.036,15.036,0,0,0,.17,2.331c.045.308.074.325.37.311a23.38,23.38,0,0,1,3.324.091,1.936,1.936,0,0,1,1.544,1.22,27.1,27.1,0,0,0,3.593,7.892,1.468,1.468,0,0,1-.311,2.1c-.585.52-1.154,1.053-1.722,1.588l-.417.39a2.367,2.367,0,0,0-.468.506c.015.007.077.124.331.525a5.356,5.356,0,0,0,.57.759c1.435,1.554,2.765,3,4.121,4.407a6.689,6.689,0,0,0,1.028.8l.141.1c.076.059.128.044.227-.056.421-.417.856-.814,1.292-1.211.488-.444.976-.89,1.438-1.359a1.693,1.693,0,0,1,2.373-.237,28.6,28.6,0,0,0,8.316,3.521c.207.054.439.087.671.124a3.019,3.019,0,0,1,2.059.871,3.181,3.181,0,0,1,.364,2.234c-.019.23-.037.461-.035.673.007.609.081.735.1.755,0,0,.113.092.693.124.873.05,1.746.039,2.619.027Zm-.426-7.292a26.526,26.526,0,0,1-7.1-.974,25.011,25.011,0,0,1-16.362-13.99,23.488,23.488,0,0,1-1.966-9.505h0a24.572,24.572,0,0,1,16.2-22.715,26.1,26.1,0,0,1,29.034,7.589,23.758,23.758,0,0,1,5.272,18.387,24.013,24.013,0,0,1-10.136,16.466A25.836,25.836,0,0,1,1130.413,160.758Zm-.116-47.133a24.425,24.425,0,0,0-8.527,1.527,22.88,22.88,0,0,0-15.106,21.137,21.814,21.814,0,0,0,1.825,8.829,23.339,23.339,0,0,0,15.271,13.046,24.3,24.3,0,0,0,20.624-3.522,22.355,22.355,0,0,0,9.438-15.317,22.092,22.092,0,0,0-4.908-17.1A24.054,24.054,0,0,0,1130.3,113.625Z" transform="translate(-1095.587 -103.371)" fill="#06c"/>
  </g>
  <g id="Group_556" data-name="Group 556" transform="translate(14.961 14.347)">
    <path id="Path_2314" data-name="Path 2314" d="M1137.238,147.47c-.032,0-.066,0-.1,0a2.755,2.755,0,0,1-1.815-1.053q-4.055-4.537-8.1-9.078l-3.378-3.79a3.372,3.372,0,0,0-.695-.669c-.032.032-.313.242-.757.629L1108.483,145.6c-.141.121-.284.235-.447.365l-.908.733-2.646-3.043,15.5-13.477a2.113,2.113,0,0,0,.365-.35.653.653,0,0,0,.1-.178c-1.39-1.428-2.649-2.875-3.827-4.237-.13-.146-.148-.175-.49-.118a6.76,6.76,0,0,1-7.719-8.5,3.245,3.245,0,0,1,.2-.476l.619-1.346,5.159,5.512c.412.442.558.508.6.52a3.506,3.506,0,0,0,.584-.458l.247-.22c.384-.345.769-.69,1.132-1.058.38-.387.38-.409.005-.816l-3.881-4.153c-.13-.14-.254-.288-.384-.442l-.922-1.082,1.07-.442a6.2,6.2,0,0,1,5.166.284,6.483,6.483,0,0,1,3.42,4.2,8.048,8.048,0,0,1,.1,2.479c-.022.352-.045.7-.042,1.051l0,.232c0,.056-.005.136,0,.2,1.154,1.13,2.331,2.239,3.553,3.388l.7.658.052-.045a19.283,19.283,0,0,1,1.83-1.519,4.6,4.6,0,0,0,2.035-3.172,4.452,4.452,0,0,1,3-3.68c1.341-.55,2.663-1.251,3.941-1.933l1.236-.649a1.645,1.645,0,0,1,2.188.387c1.867,2.04,1.9,2.479.4,4.742l-.816,1.246c-.77,1.177-1.541,2.355-2.351,3.5a3.382,3.382,0,0,1-1.248.955l-.219.116a2.357,2.357,0,0,1-1.134.249c-2.165,0-3.539,1.285-5.132,2.774q-.318.3-.641.6c.069.072.136.143.2.212l11.912,12.212a2.418,2.418,0,0,1-.14,4.151l-.557.52c-.4.37-.8.742-1.2,1.108A2.888,2.888,0,0,1,1137.238,147.47Zm-2.114-3.8,1.455,1.627c.389.434.584.491.651.495.032.01.273-.03.729-.442.4-.357.789-.722,1.179-1.087l.562-.525c.638-.59.71-.807.711-.873,0-.05-.04-.261-.634-.87l-11.909-12.21c-.18-.183-.355-.373-.552-.587l-.87-.934.675-.57c.426-.36.834-.742,1.24-1.12,1.7-1.59,3.452-3.23,6.278-3.23a1.364,1.364,0,0,0,.323-.039l.242-.131a2.3,2.3,0,0,0,.664-.441c.8-1.13,1.556-2.293,2.316-3.452l.821-1.251c.928-1.4.928-1.4-.2-2.632l-.167-.161-1.274.725c-1.315.7-2.676,1.423-4.091,2a2.8,2.8,0,0,0-1.973,2.382,6.283,6.283,0,0,1-2.728,4.288,18.4,18.4,0,0,0-1.674,1.394c-.227.205-.443.4-.648.575l-.575.493-1.8-1.7c-1.275-1.2-2.506-2.358-3.709-3.541a1.665,1.665,0,0,1-.37-1.32l0-.172c0-.387.022-.78.045-1.172a6.745,6.745,0,0,0-.055-1.968,4.965,4.965,0,0,0-5.075-3.621l3.47,3.714a2.023,2.023,0,0,1-.041,3.142c-.387.39-.8.759-1.2,1.125l-.242.219c-1.352,1.221-2.276,1.186-3.536-.16l-3.307-3.534a4.981,4.981,0,0,0,1.27,3.919,5.047,5.047,0,0,0,4.7,1.616,2,2,0,0,1,2.064.669c1.166,1.351,2.414,2.78,3.7,4.145a1.7,1.7,0,0,1,.141,2.323,3.421,3.421,0,0,1-.673.69l-14.208,12.351.478.55.051-.044,13.911-12.084c1.627-1.416,2.411-1.379,3.81.188l3.379,3.791q3.2,3.59,6.4,7.177a2.186,2.186,0,0,1-.416-1.4,2.144,2.144,0,0,1,2.125-2.079h.008a2.159,2.159,0,0,1,1.516.641,2.189,2.189,0,0,1,.637,1.554,2.115,2.115,0,0,1-.637,1.516,2.263,2.263,0,0,1-1.571.6A2.145,2.145,0,0,1,1135.123,143.667Zm1.477-2.067h0a.469.469,0,0,0-.449.461.5.5,0,0,0,.108.363.433.433,0,0,0,.34.121.5.5,0,0,0,.348-.124.456.456,0,0,0,.126-.328h0a.5.5,0,0,0-.148-.348A.464.464,0,0,0,1136.6,141.6Z" transform="translate(-1104.481 -111.901)" fill="#06c"/>
  </g>
</svg>
