<svg xmlns="http://www.w3.org/2000/svg" xmlns:xlink="http://www.w3.org/1999/xlink" width="202.048" height="202.048" viewBox="0 0 202.048 202.048">
  <defs>
    <filter id="Ellipse_833" x="0" y="0" width="202.048" height="202.048" filterUnits="userSpaceOnUse">
      <feOffset dy="1" input="SourceAlpha"/>
      <feGaussianBlur stdDeviation="5" result="blur"/>
      <feFlood flood-color="#1f1f1f" flood-opacity="0.302"/>
      <feComposite operator="in" in2="blur"/>
      <feComposite in="SourceGraphic"/>
    </filter>
  </defs>
  <g id="Group_565" data-name="Group 565" transform="translate(-2101.99 327.375)">
    <g transform="matrix(1, 0, 0, 1, 2101.99, -327.38)" filter="url(#Ellipse_833)">
      <circle id="Ellipse_833-2" data-name="Ellipse 833" cx="84.524" cy="84.524" r="84.524" transform="translate(16.5 15.5)" fill="#06c" stroke="#fff" stroke-width="3"/>
    </g>
    <path id="Path_2319" data-name="Path 2319" d="M2224.885-255.184c-4.247-15.346-8.056-25.754-8.73-32.807-.692-7.054-7.181-19.812-24.041-11.956,0,0-3.536,2.242-6.872,1.331,0,0,4.028,3.335,3.189,4.32-.71.839-4.611,1.513-6.324,1.221,1.55.6,5.358,2.224,5.559,3.937.273,2.169-.564,5.03,2.06,9.35s12.868,20.614,14.235,25.754c1.367,5.121,4.793,23.457-8.092,26.428-12.868,2.953-36.908,1.932-53.421,31.2,0,0-5.924,17.1-7.4,24.715,0,0-1.6,8.092-7.527,9.806,0,0,20.814,6.871,43.2-.638l3.974,9.332,7.73,1.566-5.506-13.358a63.314,63.314,0,0,0,22.6-17.606s22.783-16.7,20.049-57.558c0,0,8.056,17.7,9.186,23.84C2228.749-216.307,2229.131-239.837,2224.885-255.184Zm-36.417,52.619c-3.992,9.2-9.294,15.128-20.231,24.915-10.589,9.5-30.091,13.633-31.313,13.87l4.849-1.75c38.147-18.336,46.695-46.714,46.695-46.714S2192.46-211.751,2188.468-202.565Zm17.242-85.681a1.793,1.793,0,0,1-1.786-1.8,1.789,1.789,0,0,1,1.786-1.786,1.793,1.793,0,0,1,1.8,1.786A1.8,1.8,0,0,1,2205.71-288.246Zm19.156,52.218c-.164-.419-.329-.82-.492-1.221a145.463,145.463,0,0,0-6.762-13.888,165.033,165.033,0,0,1-7.673-14.946c-.383-.875-.729-1.75-1.075-2.643a22.367,22.367,0,0,1-1.641-7.035,5.134,5.134,0,0,1,.857-3.408c.437-.565,1.112,1.586,1.239,1.9.492,1.094.966,2.187,1.439,3.281.893,2.078,1.768,4.156,2.679,6.233.8,1.877,1.6,3.773,2.388,5.668.419.966.82,1.95,1.221,2.916.255.583.8,1.476,1.057,2.242q-2.487-12.193-5.777-24.223a6.006,6.006,0,0,1-.31-2.041,1.993,1.993,0,0,1,1.056-1.659.213.213,0,0,1,.183-.036.27.27,0,0,1,.146.219q1.395,4.484,2.625,9c3.171,11.555,6.725,23.111,8.438,35.013.183,1.258.292,2.5.4,3.736A4.825,4.825,0,0,1,2224.866-236.028Z" transform="translate(7.428 7.779)" fill="#fff"/>
  </g>
</svg>
