<svg id="Group_12" data-name="Group 12" xmlns="http://www.w3.org/2000/svg" width="28.308" height="25.816" viewBox="0 0 28.308 25.816">
  <g id="Group_3" data-name="Group 3" transform="translate(0 4.818)">
    <path id="Path_7" data-name="Path 7" d="M776.7,173.567a2.912,2.912,0,0,0-1.352-2.711,3.86,3.86,0,0,0-1.936-.452c-2.728-.007-5.46-.09-8.183.031a4.7,4.7,0,0,1-4.112-1.574,3.361,3.361,0,0,0-2.776-1.082c-2.173.042-4.347.009-6.527.014-2.233.005-3.383,1.106-3.388,3.273q-.014,7.194,0,14.389c0,2.189,1.185,3.3,3.475,3.306q5.336.006,10.672,0c3.627,0,7.252.007,10.879,0a2.948,2.948,0,0,0,3.249-3.117q.008-2.784.009-5.569Q776.713,176.821,776.7,173.567ZM775.191,185.3c0,1.447-.5,1.937-1.984,1.941-3.559.009-7.118,0-10.676,0H752.062c-1.636,0-2.113-.46-2.115-2.012V171.242c0-1.144.306-1.7,1.159-1.891a4.091,4.091,0,0,1,.905-.086c.157,0,.318,0,.475,0,1.914-.011,3.831-.051,5.742.037a3.056,3.056,0,0,1,1.9.763,5.881,5.881,0,0,0,4.89,1.848c2.721-.143,5.456-.04,8.185-.033,1.459,0,1.981.518,1.984,1.953q.005,3.379,0,6.758v1.845q0,1.436,0,2.874Z" transform="translate(-748.423 -167.766)" fill="#1f1f1f"/>
  </g>
  <path id="Path_8" data-name="Path 8" d="M778.192,167.572c-.005-2.416-1.056-3.756-2.933-3.764-2.433-.01-4.868-.108-7.3.036a3.719,3.719,0,0,1-3.668-1.874,2.663,2.663,0,0,0-2.473-1.29c-1.94.05-3.879.01-5.82.017-1.843.007-2.86,1.131-3,3.342h1.375c.136-1.172.643-1.584,1.8-1.59,1.849-.007,3.7-.074,5.543.041a2.416,2.416,0,0,1,1.694.906,4.623,4.623,0,0,0,4.362,2.2c2.426-.168,4.864-.048,7.3-.039,1.3,0,1.766.619,1.77,2.325v5.975q0,3.845,0,7.686a4.609,4.609,0,0,1-.154,1.328v2.424a3.5,3.5,0,0,0,1.494-3.1c0-.081.005-.165.005-.252Q778.21,174.756,778.192,167.572Z" transform="translate(-749.891 -160.672)" fill="#1f1f1f"/>
</svg>
