<svg xmlns="http://www.w3.org/2000/svg" width="64.485" height="64.485" viewBox="0 0 64.485 64.485">
  <path id="Path_2269" data-name="Path 2269" d="M703.535,189.14a.475.475,0,0,1-.219.564q-1.35.922-2.681,1.872a.406.406,0,0,1-.553,0,3.492,3.492,0,0,0-5.508,2.792.45.45,0,0,1-.341.487,37.408,37.408,0,0,1-9.608,2.385,37.864,37.864,0,0,1-13.152-.834c-.138-.033-.273-.07-.41-.11-.023,0-.042-.033-.116-.093.261-1,.485-2.033.8-3.04.49-1.55,1.049-3.077,1.569-4.618a.458.458,0,0,1,.506-.371,3.489,3.489,0,0,0,2.757-5.587.53.53,0,0,1-.035-.706,49.426,49.426,0,0,1,11.359-13.349.469.469,0,0,1,.627-.084q1.353.757,2.585,1.59l2.706-1.806a32.34,32.34,0,1,0,11.368,15.408l-2.615,1.741A34.4,34.4,0,0,1,703.535,189.14Zm-39.313-19.687h0q.431-1.287.9-2.56a.626.626,0,0,1,.319-.354,27.568,27.568,0,0,1,8.7-1.508,50.774,50.774,0,0,0-10.347,5.914C663.931,170.45,664.06,169.947,664.221,169.453Zm-1.666,11.412c.126-1.834.231-3.669.368-5.5a1.006,1.006,0,0,1,.317-.6,41.18,41.18,0,0,1,17.065-9.095,1.39,1.39,0,0,1,.618-.012,27.614,27.614,0,0,1,4.751,1.468c-.144.135-.249.236-.354.334a51.587,51.587,0,0,0-10.967,13.3.784.784,0,0,1-.751.454,3.285,3.285,0,0,0-2.951,1.962,3.328,3.328,0,0,0,.354,3.6.6.6,0,0,1,.084.68,50.76,50.76,0,0,0-2.42,7.68c-.03.133-.075.264-.135.471-1.117-.447-2.2-.883-3.287-1.32a.463.463,0,0,1-.2-.249,36.456,36.456,0,0,1-1.765-6.2l.282-.193a3.38,3.38,0,0,0,1.59-3.261,3.323,3.323,0,0,0-2.182-2.93c-.322-.128-.438-.259-.413-.581Zm-4.38,4.172a3.421,3.421,0,0,0,2.3,2.953.582.582,0,0,1,.322.319c.364,1.38.708,2.767,1.053,4.152a.974.974,0,0,1-.037.152c-.993-.641-2.01-1.2-2.921-1.909-1.6-1.236-3.13-2.555-4.69-3.841-.177-.144-.271-.273-.131-.529a41.979,41.979,0,0,1,5.914-8.366.55.55,0,0,1,.095-.074v3.445a.535.535,0,0,1-.238.354,3.4,3.4,0,0,0-1.667,3.343Zm4.669,10.9.005-.005a1.011,1.011,0,0,1,.447.462,41.756,41.756,0,0,0,3.93,7.077.936.936,0,0,1,.163.5c.023,2.179.028,4.357.037,6.536,0,.068,0,.135-.014.331l-4.667-.96c-.04-.012-.081-.025-.123-.033-.508-.042-.716-.28-.846-.82a3.465,3.465,0,0,0-5.7-1.727.483.483,0,0,1-.624.091,46.821,46.821,0,0,1-5.949-3.179.493.493,0,0,1-.28-.5,41.59,41.59,0,0,1,3.487-14.574,1.275,1.275,0,0,1,.095-.144c.11.089.217.175.313.257A40.7,40.7,0,0,0,662.845,195.935Zm3.776,1.708.077-.079,1.368.471c-.089.55-.177,1.072-.254,1.588l-.088.028Zm-17.5-17.534.007,0a29.513,29.513,0,0,1,6.406-7.911,29,29,0,0,1,6.079-4.079c.126-.065.257-.117.447-.2-.03.152-.042.252-.067.354q-.651,2.609-1.31,5.221a.957.957,0,0,1-.228.433,44.939,44.939,0,0,0-8.245,10.624,1.864,1.864,0,0,1-.112.151c-.606-.758-1.2-1.475-1.767-2.212-.4-.531-.762-1.089-1.167-1.616A.594.594,0,0,1,649.125,180.108Zm-2.27,21.883a.584.584,0,0,1-.117.331,1.964,1.964,0,0,1-.208-.392,29.043,29.043,0,0,1,.995-18.37c.04-.105.084-.21.128-.312a.181.181,0,0,1,.047-.046c1.037,1.236,2.067,2.473,3.075,3.711a.57.57,0,0,1,0,.478,45.122,45.122,0,0,0-2.45,6.641,44.027,44.027,0,0,0-1.476,7.956Zm21.338,20.723a29.151,29.151,0,0,1-18.711-13.778c-.37-.615-.2-1.252-.3-1.963,1.044.564,1.981,1.091,2.935,1.576.816.419,1.655.8,2.492,1.18a.456.456,0,0,1,.31.433,3.5,3.5,0,0,0,6.037,2.135.471.471,0,0,1,.5-.177c1.963.406,3.935.793,5.9,1.175.212.04.354.067.392.334a51.179,51.179,0,0,0,2.016,9.1,3.056,3.056,0,0,1,.07.322c-.583-.123-1.123-.207-1.648-.338Zm1.774-11.849.007,0c-.079-1.306-.142-2.615-.2-3.895l4.133,4.259c-1.091-.044-2.389-.089-3.683-.156A.332.332,0,0,1,669.967,210.865Zm19.356,8.7a28.987,28.987,0,0,1-11.026,3.709,26.091,26.091,0,0,1-5.254.163c-.272-.021-.452-.058-.561-.375a51.206,51.206,0,0,1-2.168-9.023c-.017-.126-.023-.252-.037-.436.5.023.949.065,1.4.063,1.741-.016,3.482-.051,5.221-.063a1.238,1.238,0,0,1,.669.156,40.448,40.448,0,0,0,11.762,5.476c.082.023.159.051.32.1-.147.093-.233.168-.331.224Zm11.741-12.634a29.078,29.078,0,0,1-8.261,10.308.693.693,0,0,1-.651.161,37.654,37.654,0,0,1-10.6-4.089c-.073-.04-.14-.088-.228-.144,1.7-.4,3.356-.786,5.026-1.163a.473.473,0,0,1,.354.123,3.523,3.523,0,0,0,6.031-2.168.458.458,0,0,1,.207-.313,49.194,49.194,0,0,0,9.107-5.319c.018-.014.047,0,.167-.019-.4.9-.757,1.774-1.163,2.622Zm2.949-14.473c-.009.637.033,1.285-.017,1.925l.007.007c-.144,1.746-.319,3.49-.506,5.233a1.03,1.03,0,0,1-.331.6,44.827,44.827,0,0,1-10.969,7.03.449.449,0,0,1-.582-.1,3.49,3.49,0,0,0-5.848,2.093.452.452,0,0,1-.4.44,44.006,44.006,0,0,1-7.133,1.294.728.728,0,0,1-.457-.138,37.219,37.219,0,0,1-7.65-7.606.6.6,0,0,1-.144-.378c.14-1.347.3-2.694.462-4.107.55.119,1.023.222,1.5.324a39.885,39.885,0,0,0,23.257-1.923.705.705,0,0,1,.8.086,3.479,3.479,0,0,0,5.566-2.821.735.735,0,0,1,.406-.736c.65-.391,1.268-.83,1.9-1.25Z" transform="translate(-642.505 -161.942)" fill="#fff"/>
</svg>
