<svg id="Path_17" data-name="Path 17" xmlns="http://www.w3.org/2000/svg" width="64.587" height="58.531" viewBox="0 0 64.587 58.531">
  <path id="Path_2237" data-name="Path 2237" d="M759.536,162.122a1.7,1.7,0,0,0-.771-1.064,1.674,1.674,0,0,0-.633-.231,1.315,1.315,0,0,0-.6,0,3.132,3.132,0,0,0-.369.078l-36.992,9.116q-11.8,2.915-23.555,5.817a1.83,1.83,0,0,0-1.6,1.526,1.79,1.79,0,0,0,1,1.837c1.111.693,2.206,1.4,3.3,2.113.664.433,1.312.864,1.975,1.3q8.006,5.158,16.012,10.351a1.4,1.4,0,0,1,.555.709c2.561,7.914,5.184,16.043,7.76,24.142a1.849,1.849,0,0,0,1.6,1.512h.14a1.753,1.753,0,0,0,1.65-1.1q5.668-10.251,11.337-20.5a1.718,1.718,0,0,0-.724-2.376,1.722,1.722,0,0,0-2.3.71l-8.283,14.978a1.129,1.129,0,0,1-1.512.433,1.176,1.176,0,0,1-.524-.633l-.741-2.3q-2.476-7.7-4.982-15.472a.4.4,0,0,1,.2-.524q10.133-7.727,20.239-15.488l10.628-8.145-5.277,9.533a1.73,1.73,0,0,0,3.025,1.681l7.188-12.987c.679-1.25,1.373-2.485,2.037-3.718A1.686,1.686,0,0,0,759.536,162.122Zm-9.271,4.042L719.1,190.028l-18.1-11.708Z" transform="translate(-694.997 -160.791)" fill="#fff"/>
</svg>
