<svg id="Capa_1" enable-background="new 0 0 510 510" height="512" viewBox="0 0 510 510" width="512" xmlns="http://www.w3.org/2000/svg"><g><path d="m0 179.5v225c0 24.813 20.187 45 45 45h420c24.813 0 45-20.187 45-45v-225l-22.9-11h-463.158z" fill="#f3faff"/><path d="m510 179.5v225c0 24.81-20.19 45-45 45h-213.39v-281h235.49z" fill="#e1ebf0"/><path d="m510 179.5v-74c0-24.813-20.187-45-45-45h-420c-24.813 0-45 20.187-45 45v74z" fill="#2dd384"/><path d="m510 105.5v74h-258.39v-119h213.39c24.81 0 45 20.19 45 45z" fill="#0fb773"/><path d="m200 230.5h-150c-8.284 0-15 6.716-15 15v145c0 8.284 6.716 15 15 15l8.554-15h132l9.446 15c8.284 0 15-6.716 15-15v-145c0-8.284-6.716-15-15-15z" fill="#9fcafc"/><path d="m215 245.5v145c0 8.28-6.72 15-15 15l-9.45-15h-65.55v-160h75c8.28 0 15 6.72 15 15z" fill="#6aa9ff"/><path d="m200 405.5c0-41.355-33.645-75-75-75s-75 33.645-75 75" fill="#6aa9ff"/><path d="m200 405.5h-75v-75c41.36 0 75 33.65 75 75z" fill="#2880ea"/><circle cx="125" cy="300.5" fill="#f5dbcc" r="40"/><path d="m165 300.5c0 22.06-17.94 40-40 40v-80c22.06 0 40 17.94 40 40z" fill="#f0cabb"/><g fill="#87a0af"><path d="m304 265.5h150c8.284 0 15-6.716 15-15s-6.716-15-15-15h-150c-8.284 0-15 6.716-15 15s6.716 15 15 15z"/><path d="m454 295.5h-150c-8.284 0-15 6.716-15 15s6.716 15 15 15h150c8.284 0 15-6.716 15-15s-6.716-15-15-15z"/><path d="m454 355.5h-150c-8.284 0-15 6.716-15 15s6.716 15 15 15h150c8.284 0 15-6.716 15-15s-6.716-15-15-15z"/></g><path d="m375 105h-240c-8.284 0-15 6.716-15 15s6.716 15 15 15h240c8.284 0 15-6.716 15-15s-6.716-15-15-15z" fill="#0fb773"/><path d="m390 120c0 8.28-6.72 15-15 15h-123.39v-30h123.39c8.28 0 15 6.72 15 15z" fill="#0c915b"/></g></svg>